<svg width="72" height="36" viewBox="0 0 72 36" fill="none" xmlns="http://www.w3.org/2000/svg">
<rect x="0.355729" y="0.920823" width="71.2885" height="34.3635" rx="6.75885" fill="white"/>
<rect x="0.355729" y="0.920823" width="71.2885" height="34.3635" rx="6.75885" stroke="#BCBEC0" stroke-width="0.711458"/>
<g clip-path="url(#clip0_101_14120)">
<path d="M44.5375 18.1549C44.5375 13.4102 40.7148 9.56403 36 9.56403C31.283 9.56509 27.4604 13.4102 27.4604 18.156C27.4604 22.4428 30.5829 25.9966 34.6639 26.6412V20.6382H32.4975V18.156H34.666V16.2617C34.666 14.1092 35.9413 12.9203 37.891 12.9203C38.8259 12.9203 39.8024 13.0879 39.8024 13.0879V15.2009H38.7256C37.6659 15.2009 37.335 15.8636 37.335 16.5434V18.1549H39.7021L39.3243 20.6372H37.334V26.6401C41.4149 25.9955 44.5375 22.4418 44.5375 18.1549Z" fill="#059BE5"/>
</g>
<defs>
<clipPath id="clip0_101_14120">
<rect x="27.4625" y="9.56509" width="17.075" height="17.075" rx="8.5375" fill="white"/>
</clipPath>
</defs>
</svg>
