<svg width="72" height="36" viewBox="0 0 72 36" fill="none" xmlns="http://www.w3.org/2000/svg">
<rect x="0.355729" y="0.920823" width="71.2885" height="34.3635" rx="6.75885" fill="white"/>
<rect x="0.355729" y="0.920823" width="71.2885" height="34.3635" rx="6.75885" stroke="#BCBEC0" stroke-width="0.711458"/>
<g clip-path="url(#clip0_101_14103)">
<path fill-rule="evenodd" clip-rule="evenodd" d="M36 9.56509C31.283 9.56509 27.4625 13.3856 27.4625 18.1026C27.4625 21.8804 29.9064 25.0713 33.3 26.2025C33.7269 26.2773 33.887 26.0211 33.887 25.797C33.887 25.5942 33.8763 24.9219 33.8763 24.2069C31.7312 24.6018 31.1763 23.684 31.0056 23.2038C30.9095 22.9583 30.4933 22.2006 30.1305 21.9978C29.8317 21.8378 29.4048 21.4429 30.1198 21.4322C30.7921 21.4215 31.2724 22.0512 31.4324 22.3073C32.2008 23.5986 33.4281 23.2358 33.919 23.0117C33.9937 22.4567 34.2178 22.0832 34.4632 21.8698C32.5637 21.6563 30.5787 20.92 30.5787 17.6544C30.5787 16.7259 30.9095 15.9575 31.4538 15.3599C31.3684 15.1465 31.0696 14.2714 31.5392 13.0975C31.5392 13.0975 32.2542 12.8734 33.887 13.9726C34.57 13.7805 35.2957 13.6844 36.0213 13.6844C36.747 13.6844 37.4727 13.7805 38.1557 13.9726C39.7885 12.8627 40.5035 13.0975 40.5035 13.0975C40.9731 14.2714 40.6743 15.1465 40.5889 15.3599C41.1332 15.9575 41.464 16.7153 41.464 17.6544C41.464 20.9306 39.4684 21.6563 37.5688 21.8698C37.8782 22.1366 38.145 22.6488 38.145 23.4492C38.145 24.5911 38.1344 25.5089 38.1344 25.797C38.1344 26.0211 38.2944 26.2879 38.7213 26.2025C40.4161 25.6303 41.8889 24.5411 42.9322 23.088C43.9755 21.635 44.537 19.8914 44.5375 18.1026C44.5375 13.3856 40.717 9.56509 36 9.56509Z" fill="black"/>
</g>
<defs>
<clipPath id="clip0_101_14103">
<rect x="27.4625" y="9.56509" width="17.075" height="17.075" rx="8.5375" fill="white"/>
</clipPath>
</defs>
</svg>
