<svg width="72" height="36" viewBox="0 0 72 36" fill="none" xmlns="http://www.w3.org/2000/svg">
<rect x="0.355729" y="0.920823" width="71.2885" height="34.3635" rx="6.75885" fill="white"/>
<rect x="0.355729" y="0.920823" width="71.2885" height="34.3635" rx="6.75885" stroke="#BCBEC0" stroke-width="0.711458"/>
<g clip-path="url(#clip0_101_14095)">
<path d="M44.3711 16.4304H43.6835V16.395H35.9998V19.8099H40.8247C40.1208 21.7978 38.2294 23.2249 35.9998 23.2249C33.171 23.2249 30.8774 20.9313 30.8774 18.1024C30.8774 15.2736 33.171 12.98 35.9998 12.98C37.3056 12.98 38.4936 13.4726 39.3981 14.2773L41.8129 11.8625C40.2882 10.4415 38.2486 9.56509 35.9998 9.56509C31.2851 9.56509 27.4625 13.3877 27.4625 18.1024C27.4625 22.8172 31.2851 26.6398 35.9998 26.6398C40.7146 26.6398 44.5372 22.8172 44.5372 18.1024C44.5372 17.53 44.4783 16.9712 44.3711 16.4304Z" fill="#FFC107"/>
<path d="M28.4463 14.1287L31.2512 16.1858C32.0102 14.3067 33.8483 12.98 35.9993 12.98C37.3051 12.98 38.493 13.4726 39.3976 14.2773L41.8124 11.8625C40.2876 10.4415 38.248 9.56509 35.9993 9.56509C32.7201 9.56509 29.8763 11.4164 28.4463 14.1287Z" fill="#FF3D00"/>
<path d="M36 26.6401C38.2052 26.6401 40.2089 25.7962 41.7238 24.4238L39.0815 22.1879C38.1956 22.8616 37.113 23.226 36 23.2251C33.7794 23.2251 31.8939 21.8092 31.1836 19.8333L28.3996 21.9783C29.8125 24.7431 32.6819 26.6401 36 26.6401Z" fill="#4CAF50"/>
<path d="M44.3711 16.4304H43.6835V16.395H35.9998V19.8099H40.8247C40.488 20.756 39.8815 21.5828 39.0801 22.188L39.0814 22.1872L41.7237 24.4231C41.5367 24.593 44.5372 22.3711 44.5372 18.1025C44.5372 17.53 44.4783 16.9713 44.3711 16.4304Z" fill="#1976D2"/>
</g>
<defs>
<clipPath id="clip0_101_14095">
<rect x="27.4625" y="9.56509" width="17.075" height="17.075" rx="8.5375" fill="white"/>
</clipPath>
</defs>
</svg>
